<svg xmlns="http://www.w3.org/2000/svg" viewBox="0 0 512 512">
  <defs>
    <linearGradient id="bg" x1="58" x2="454" y1="32" y2="480" gradientUnits="userSpaceOnUse">
      <stop stop-color="#fff7ed"/>
      <stop offset=".44" stop-color="#fdf2f8"/>
      <stop offset="1" stop-color="#ecfdf5"/>
    </linearGradient>
    <linearGradient id="mark" x1="160" x2="360" y1="92" y2="392" gradientUnits="userSpaceOnUse">
      <stop stop-color="#047857"/>
      <stop offset=".55" stop-color="#10b981"/>
      <stop offset="1" stop-color="#eab308"/>
    </linearGradient>
  </defs>
  <rect width="512" height="512" rx="108" fill="url(#bg)"/>
  <rect x="30" y="30" width="452" height="452" rx="92" fill="none" stroke="#eab308" stroke-width="12" opacity=".78"/>
  <circle cx="386" cy="126" r="42" fill="#eab308" opacity=".95"/>
  <path d="M252 84c25 0 43 18 43 45v228c0 42-25 74-66 74-46 0-78-33-78-78 0-33 17-61 48-75v66c0 18 10 29 26 29 14 0 22-9 22-28V129c0-24 6-39 5-45z" fill="url(#mark)"/>
  <text x="256" y="464" text-anchor="middle" font-family="Arial, sans-serif" font-size="54" font-weight="800" fill="#064e3b">Alif AI</text>
</svg>
