<svg xmlns="http://www.w3.org/2000/svg" viewBox="0 0 512 512">
  <defs>
    <linearGradient id="bg" x1="0" x2="512" y1="0" y2="512"><stop stop-color="#fff7ed"/><stop offset=".48" stop-color="#fdf2f8"/><stop offset="1" stop-color="#ecfdf5"/></linearGradient>
    <linearGradient id="mark" x1="140" x2="370" y1="80" y2="430"><stop stop-color="#047857"/><stop offset=".55" stop-color="#10b981"/><stop offset="1" stop-color="#eab308"/></linearGradient>
  </defs>
  <rect width="512" height="512" fill="url(#bg)"/>
  <circle cx="386" cy="128" r="58" fill="#eab308"/>
  <path d="M250 82c28 0 48 20 48 50v232c0 40-23 72-63 72-46 0-76-32-76-76 0-34 18-62 48-75v70c0 16 10 27 25 27 13 0 21-9 21-26V132c0-26 8-50-3-50z" fill="url(#mark)"/>
</svg>
